<svg width="70" height="80" viewBox="0 0 70 80" fill="none" xmlns="http://www.w3.org/2000/svg">
<path d="M7.88771 48.2203C10.1269 49.0364 12.2002 49.8117 14.2942 50.5666C18.2542 52.0152 22.2142 53.4842 26.1742 54.9532C26.5681 55.096 26.962 55.402 27.2523 55.708C29.7402 58.2788 32.2075 60.8903 34.6954 63.461C34.7576 63.5427 34.8405 63.5835 34.9857 63.7059C37.9297 61.176 40.708 58.5032 43.1544 55.3612C42.18 54.994 41.3299 54.6471 40.4592 54.3411C33.8454 51.8928 27.2315 49.4444 20.6177 46.9961C15.5796 45.1395 10.5208 43.2624 5.48269 41.4058C4.9851 41.2222 4.92231 40.665 4.81864 40.1346C3.51247 35.0543 3.03573 31.4901 2.10275 26.267C1.72956 23.6759 1.35685 20.4479 1.00439 17.7955C0.299988 12.4947 0.00919743 7.19393 0.00919743 0.981956C0.00919743 0.85954 -0.0115123 0.224429 0.00922067 0C0.237283 0.0816106 1.54891 0.696048 1.71477 0.757256C6.69068 2.6751 10.7696 4.375 15.7455 6.29285C21.3434 8.45553 26.9413 10.6182 32.5184 12.7809C34.4881 13.5562 36.3748 13.2502 38.2822 12.4953C45.5595 9.65929 52.8575 6.86413 60.1347 4.04856C63.2032 2.86521 66.2924 1.68186 69.3609 0.478101C69.506 0.416893 69.6719 0.376088 69.817 0.335283C70.6878 14.964 68.3864 29.1642 64.2813 43.2012C63.0166 42.732 61.7519 42.2423 60.4872 41.773C57.9578 40.8141 55.4491 39.8552 52.9197 38.9167C52.4843 38.7535 52.3391 38.5698 52.4428 38.0802C53.3136 34.1425 54.1844 30.2251 54.9308 26.267C55.3247 24.2064 55.4698 22.1049 55.7186 20.0238C55.7393 19.8402 55.7186 19.6362 55.7186 19.3097C54.7442 19.6974 53.8526 20.0238 52.9819 20.3707C47.3632 22.6354 41.7446 24.9001 36.1467 27.1852C35.5869 27.4096 35.0893 27.4504 34.4881 27.226C27.9987 24.8593 21.5093 22.513 15.0198 20.1462C14.7503 20.0442 14.4808 19.983 14.0869 19.8606C14.2735 20.9828 14.4186 22.0029 14.5845 23.023C14.9784 25.4713 15.4138 27.9197 15.787 30.368C15.8699 30.8984 16.0772 31.1841 16.5955 31.3677C20.7007 32.8979 24.8058 34.4689 28.9109 36.0195C34.7783 38.2434 40.6665 40.4877 46.5339 42.7116C51.5513 44.609 56.5479 46.5269 61.5653 48.4039C62.0007 48.5671 62.0836 48.7303 61.9178 49.1588C60.1347 53.8106 57.8541 58.1972 54.91 62.2369C52.7123 65.2361 50.0793 67.868 47.2388 70.2551C43.424 73.4787 39.4847 76.6003 35.6077 79.7628C35.2345 80.0688 34.9649 80.0892 34.5503 79.7628C29.8854 76.1923 25.3656 72.4178 21.4056 68.0924C19.5189 66.0522 17.7773 63.8487 16.2431 61.5636C13.4856 57.4423 10.9355 53.1781 8.30237 48.9752C8.17797 48.812 8.09504 48.5875 7.88771 48.2203Z" fill="#EF0000"/>
</svg>
